<?xml version="1.0" encoding="utf-8"?>
<!-- Generator: Adobe Illustrator 15.1.0, SVG Export Plug-In . SVG Version: 6.00 Build 0)  -->
<!DOCTYPE svg PUBLIC "-//W3C//DTD SVG 1.1//EN" "http://www.w3.org/Graphics/SVG/1.1/DTD/svg11.dtd">
<svg version="1.1" id="Layer_1" xmlns="http://www.w3.org/2000/svg" xmlns:xlink="http://www.w3.org/1999/xlink" x="0px" y="0px"
	 width="1920px" height="941px" viewBox="0 0 1920 941" enable-background="new 0 0 1920 941" xml:space="preserve">
<linearGradient id="SVGID_1_" gradientUnits="userSpaceOnUse" x1="426" y1="779.9141" x2="426" y2="171.583" gradientTransform="matrix(1 0 0 -1 539 1114)">
	<stop  offset="0" style="stop-color:#069599"/>
	<stop  offset="1" style="stop-color:#067786"/>
</linearGradient>
<rect y="-6" fill="url(#SVGID_1_)" width="1930" height="958"/>
<g>
	<g>
		<defs>
			<rect id="SVGID_2_" y="-6" width="1930" height="952"/>
		</defs>
		<clipPath id="SVGID_3_">
			<use xlink:href="#SVGID_2_"  overflow="visible"/>
		</clipPath>
		<g clip-path="url(#SVGID_3_)">
			<g opacity="0.19">
				<g>
					<path fill="#FFFFFF" d="M817.434,104.973L817.434,104.973c28.958,0,52.069,11.777,63.377,32.362
						c10.297,18.85,11.603,41.729-0.668,61.176c-0.521,0.777-6.339,10.389-14.643,13.279c-5.266,1.833-7.77,1.924-11.671,2.809
						c-14.923,3.638-29.196,7.122-43.233,9.672c-49.495,8.886-85.683,45.697-94.575,96.158
						c-2.497,13.936-6.342,27.999-10.372,42.921c-4.147,14.309-12.298,20.512-12.298,20.512s-5.877,3.748-13.877,6.475
						c-8.009,3.169-16.042,4.701-24.052,4.701c-32.649,0-57.658-25.477-58.101-59.427
						c-1.533-112.698,90.599-215.825,205.478-229.728C807.712,105.257,812.729,104.973,817.434,104.973 M817.434,70.421
						c-6.055,0-12.352,0.366-18.847,1.147C667.354,87.502,560.925,203.729,562.746,336.132
						c0.753,54.617,43.206,93.508,92.676,93.508c12.064,0,24.492-2.338,36.84-7.173c5.743-2.341,11.619-4.11,17.522-6.184
						c7.927-7.855,15.596-8.552,23.81-23.712c8.214-15.161,12.507-43.777,16.406-66.086c6.394-35.822,31.171-61.815,66.628-68.209
						c22.355-4.059,53.644-11.256,62.106-14.687c13.03-5.282,27.686-25.974,28.1-26.493
						C946.633,154.493,907.563,70.421,817.434,70.421L817.434,70.421z"/>
					<path fill="#FFFFFF" d="M825.001-498.071L825.001-498.071c25.81,0,42.658,9.492,54.562,30.807
						c11.465,20.826,10.739,39.332-2.366,60.081c-11.698,18.404-29.117,26.254-60.154,27.216
						c-240.076,7.643-433.102,109.73-573.638,303.483C160.164,38.085,115.867,171.234,111.837,319.312
						c-0.885,34.55-11.906,75.65-59.193,75.65h-2.08c-15.937-0.366-28.752-5.458-38.06-15.183
						C0.079,366.655-6.473,344.734-5.668,318.037c5.748-209.713,81.553-404.661,207.661-534.46
						C334.73-348.795,446.88-420.288,589.028-463.337C664.991-486.372,744.411-498.071,825.001-498.071 M824.921-532.671
						c-83.762,0.026-165.884,12.038-245.901,36.292c-140.902,42.581-260.017,114.513-401.437,255.518
						C52.928-112.673-33.926,85.006-40.32,317.074c-1.768,67.646,33.404,111.268,90.154,112.489c0.963,0,1.847,0,2.81,0
						c56.696,0,91.844-41.047,93.742-109.237c3.745-138.041,43.829-264.825,124.94-376.509
						C405.83-241.644,588.871-338.14,818.162-345.417c36.679-1.093,67.954-11.336,88.258-43.206
						c19.469-30.78,21.314-63.042,3.301-95.408C891.236-517.306,862.355-532.671,824.921-532.671L824.921-532.671z"/>
					<path fill="#FFFFFF" d="M817.722-195.679L817.722-195.679h1.974c14.271,0.051,29.632,3.771,39.878,9.517
						c22.407,12.687,33.018,38.787,25.787,63.456c-10.058,34.965-41.461,43.284-65.95,44.169
						c-225.911,7.8-396.655,177.45-405.988,403.36c-0.52,11.23-1.404,24.124-5.094,33.667
						c-8.449,22.432-29.117,36.394-53.892,36.394c-3.979,0-8.034-0.39-12.062-1.091c-28.311-5.277-47.132-29.562-46.77-60.652
						c1.847-145.372,54.723-269.635,161.568-379.755C548.213-138.537,686.307-195.679,817.722-195.679 M817.722-230.253
						c-143.971,0-288.85,62.079-385.037,159.279C318.77,46.4,262.955,178.618,261.134,332.751
						c-0.676,48.743,30.573,86.803,74.974,94.968c6.187,1.142,12.297,1.714,18.329,1.714c38.083,0,72.295-21.943,86.256-58.646
						c5.224-13.834,6.629-29.64,7.278-44.585c8.527-207.008,165.311-363.04,372.607-370.166
						c50.383-1.769,85.842-26.852,98.035-69.151c11.253-38.838-4.265-81.732-41.984-103.103
						c-16.406-9.255-37.646-13.88-56.778-14.035C819.176-230.253,818.448-230.253,817.722-230.253L817.722-230.253z"/>
				</g>
				<g>
					<path fill="#FFFFFF" d="M1291.136,568.177c32.728,0,57.817,25.48,58.18,59.35c1.534,112.8-90.6,215.879-205.448,229.757
						c-5.021,0.679-9.932,0.988-14.666,0.988c-28.959,0-52.042-11.801-63.297-32.34c-10.452-18.871-9.204-41.802,3.454-61.736
						c0.446-0.629,0.807-1.329,1.17-2.132c3.614-3.514,7.15-7.047,10.688-10.634c3.793-0.885,7.643-1.872,11.462-2.809
						c15.054-3.611,29.247-7.07,43.546-9.646c49.392-9.02,85.58-45.883,94.419-96.208c2.492-13.809,6.289-27.819,10.346-42.691
						c1.091-3.844,2.132-7.745,3.172-11.541l6.394-6.421l4.917-4.99c4.053-1.327,7.95-2.654,11.697-4.239
						C1275.125,569.766,1283.129,568.177,1291.136,568.177 M1291.136,533.577c-11.986,0-24.386,2.341-36.68,7.229
						c-5.825,2.334-11.75,4.157-17.652,6.056c-7.877,7.983-15.808,15.831-23.684,23.84c-5.562,21.939-12.58,43.777-16.536,66.029
						c-6.234,35.822-31.113,61.794-66.495,68.189c-22.411,4.136-44.246,10.007-66.396,15.157
						c-7.928,7.979-15.886,15.856-23.761,23.758c-0.054,0.886,0.312,1.771-0.054,2.342c-39.799,62.597-0.755,146.727,89.322,146.727
						c6.032,0,12.298-0.47,18.823-1.251c131.283-15.935,237.688-132.11,235.841-264.563
						C1383.138,572.441,1340.633,533.577,1291.136,533.577L1291.136,533.577z"/>
					<path fill="#FFFFFF" d="M1893.994,568.177L1893.994,568.177l2.077,0.03c15.86,0.363,28.755,5.458,38.012,15.232
						c12.499,13.1,19.053,35.095,18.3,61.739c-5.722,209.688-81.604,404.662-207.739,534.466
						c-132.815,132.317-244.86,203.862-387.01,246.941c-75.986,23.002-155.404,34.758-235.839,34.808
						c-25.97,0-42.712-9.569-54.644-30.99c-11.544-20.77-10.895-39.23,2.364-60.051c11.597-18.302,29.037-26.255,59.999-27.192
						c240.104-7.594,433.284-109.731,573.796-303.532c83.109-114.386,127.383-247.543,131.569-395.823
						C1835.764,609.328,1846.784,568.177,1893.994,568.177 M1893.994,533.577c-56.668,0-91.924,41.152-93.665,109.343
						c-3.897,138.04-43.858,264.826-124.938,376.375c-134.663,185.615-317.704,282.09-546.919,289.289
						c-36.759,1.198-67.95,11.257-88.178,43.288c-19.55,30.75-21.447,63.013-3.299,95.405c18.379,33.169,47.362,48.64,84.799,48.64
						c83.681-0.031,165.828-11.932,245.85-36.292c140.795-42.636,260.016-114.488,401.411-255.549
						c124.573-128.161,211.507-325.836,217.98-557.91c1.687-67.663-33.381-111.338-90.235-112.511
						C1895.919,533.655,1894.956,533.577,1893.994,533.577L1893.994,533.577z"/>
					<path fill="#FFFFFF" d="M1592.201,568.31h-0.08c4.059,0,8.19,0.416,12.219,1.245c28.231,5.15,46.979,29.429,46.613,60.524
						c-1.691,145.371-54.616,269.687-161.541,379.857c-90.91,91.871-229.004,149.013-360.418,149.013h-2.052
						c-14.271-0.157-29.637-3.796-39.854-9.567c-22.723-12.893-33.014-38.369-25.894-63.457
						c10.141-34.942,41.492-43.286,66.033-44.116c225.909-7.902,396.656-177.451,406.014-403.411
						c0.415-10.558,1.378-23.919,5.07-33.693C1546.838,582.35,1567.425,568.31,1592.201,568.31 M1592.121,533.783
						c-38.082,0-72.269,21.995-86.097,58.65c-5.303,13.882-6.761,29.691-7.281,44.611
						c-8.681,207.007-165.309,362.963-372.686,370.243c-50.38,1.661-85.812,26.721-98.034,69.068
						c-11.178,38.812,4.342,81.709,41.908,103.107c16.483,9.276,37.8,13.906,56.777,14.009c0.832,0,1.481,0,2.285,0
						c143.999,0,288.851-62.025,385.038-159.202c113.837-117.399,169.649-249.594,171.418-403.832
						c0.651-48.689-30.439-86.772-74.922-94.937C1604.34,534.36,1598.232,533.783,1592.121,533.783L1592.121,533.783z"/>
				</g>
			</g>
			<g opacity="0.19">
				<path fill="#FFFFFF" d="M1926.279-328.133c-22.07-5.118-43.906-11.046-66.317-15.154c-35.454-6.398-60.233-32.312-66.549-68.162
					c-4.054-22.28-10.893-44.142-16.532-66.111c-7.956-7.902-15.833-15.805-23.789-23.733c-5.796-2.003-11.669-3.771-17.573-6.187
					c-63.093-25.086-128.446,18.457-129.408,86.411c-1.771,132.427,104.479,248.525,235.839,264.566
					c103.389,12.584,150.649-78.741,108.145-145.5c-0.284-0.575,0-1.509-0.053-2.393
					C1942.09-312.3,1934.235-320.227,1926.279-328.133z"/>
				<path fill="#FFFFFF" d="M1622.356,411.471c80.071,24.255,162.141,36.211,245.928,36.211c37.409,0,66.237-15.362,84.776-48.609
					c18.012-32.417,16.169-64.634-3.332-95.358c-20.354-32.001-51.469-42.142-88.229-43.31
					c-229.213-7.254-412.254-103.781-546.84-289.237c-81.158-111.705-121.088-238.387-124.987-376.429
					c-1.848-69.359-38.165-110.694-96.502-109.211c-56.749,1.169-91.973,44.792-90.154,112.435
					c6.395,232.046,93.406,429.777,217.903,557.961C1362.343,296.85,1481.533,368.862,1622.356,411.471z"/>
				<path fill="#FFFFFF" d="M1863.267,145.268c19.056-0.107,40.295-4.81,56.776-14.039c37.643-21.372,53.085-64.29,41.907-103.077
					c-12.222-42.322-47.65-67.356-97.957-69.126c-207.372-7.25-364.21-163.179-372.658-370.268
					c-0.624-14.843-2.081-30.65-7.304-44.452c-16.169-42.583-59.48-65.303-104.557-57.01c-44.43,8.137-75.682,46.247-75.029,94.964
					c1.926,154.134,57.739,286.402,171.576,403.776C1572.654,83.68,1718.466,145.967,1863.267,145.268z"/>
			</g>
			<g opacity="0.19">
				<path fill="#FFFFFF" d="M15.519,1286.594c22.123,4.987,43.961,10.996,66.317,15.077c35.512,6.392,60.235,32.339,66.63,68.161
					c3.9,22.304,10.866,44.169,16.481,66.138c7.851,7.928,15.729,15.805,23.734,23.731c5.799,2.002,11.777,3.717,17.497,6.107
					c63.17,25.165,128.683-18.401,129.568-86.31c1.768-132.475-104.559-248.521-235.815-264.589
					c-103.39-12.582-150.676,78.666-108.25,145.528c0.365,0.519-0.077,1.533,0,2.341
					C-0.312,1270.732,7.565,1278.636,15.519,1286.594z"/>
				<path fill="#FFFFFF" d="M319.418,546.965c-79.99-24.307-162.062-36.263-245.822-36.263c-37.486,0-66.343,15.391-84.8,48.613
					c-18.147,32.36-16.223,64.624,3.25,95.458c20.355,31.925,51.472,42.064,88.153,43.205
					c229.393,7.226,412.409,103.778,546.995,289.188c81.107,111.782,121.036,238.494,124.938,376.502
					c1.843,69.333,38.083,110.615,96.549,109.216c56.777-1.193,91.92-44.795,90.074-112.487
					c-6.394-232.021-93.326-429.696-217.898-557.965C579.382,661.533,460.189,589.521,319.418,546.965z"/>
				<path fill="#FFFFFF" d="M78.534,813.172c-18.976,0.073-40.293,4.779-56.776,13.959c-37.641,21.371-53.084,64.315-42.008,103.103
					c12.296,42.32,47.807,67.381,98.111,69.152c207.373,7.222,364.105,163.15,372.684,370.236
					c0.519,14.874,1.975,30.678,7.226,44.508c16.094,42.585,59.479,65.199,104.612,57.039c44.348-8.216,75.597-46.327,74.949-95.069
					c-1.849-154.083-57.584-286.355-171.553-403.7C369.228,874.704,223.388,812.521,78.534,813.172z"/>
			</g>
		</g>
	</g>
</g>
</svg>
